<svg width="512" height="512" viewBox="0 0 512 512" fill="none" xmlns="http://www.w3.org/2000/svg">
  <defs>
    <radialGradient id="skin" cx="0" cy="0" r="1" gradientUnits="userSpaceOnUse" gradientTransform="translate(188 170) rotate(50) scale(250)">
      <stop stop-color="#FFD77A"/>
      <stop offset="0.6" stop-color="#F2B847"/>
      <stop offset="1" stop-color="#C78417"/>
    </radialGradient>
    <linearGradient id="shine" x1="150" y1="70" x2="384" y2="430" gradientUnits="userSpaceOnUse">
      <stop stop-color="#FFF3C1" stop-opacity="0.9"/>
      <stop offset="1" stop-color="#FFFFFF" stop-opacity="0"/>
    </linearGradient>
  </defs>
  <rect width="512" height="512" rx="120" fill="#101321"/>
  <path d="M155 90C155 56.8629 181.863 30 215 30H297C330.137 30 357 56.8629 357 90V125C357 146.539 374.461 164 396 164H402C430.719 164 454 187.281 454 216V369C454 423.124 410.124 467 356 467H156C101.876 467 58 423.124 58 369V216C58 187.281 81.2812 164 110 164H116C137.539 164 155 146.539 155 125V90Z" fill="url(#skin)"/>
  <path d="M155 90C155 56.8629 181.863 30 215 30H297C330.137 30 357 56.8629 357 90V125C357 146.539 374.461 164 396 164H402C430.719 164 454 187.281 454 216V369C454 423.124 410.124 467 356 467H156C101.876 467 58 423.124 58 369V216C58 187.281 81.2812 164 110 164H116C137.539 164 155 146.539 155 125V90Z" stroke="#F8DA8E" stroke-width="14"/>
  <ellipse cx="181" cy="246" rx="40" ry="54" fill="#23190E"/>
  <ellipse cx="331" cy="246" rx="40" ry="54" fill="#23190E"/>
  <ellipse cx="170" cy="230" rx="14" ry="18" fill="#FFF0D5" fill-opacity="0.9"/>
  <ellipse cx="320" cy="230" rx="14" ry="18" fill="#FFF0D5" fill-opacity="0.9"/>
  <path d="M166 337C193.189 357.734 220.817 368 256 368C291.183 368 318.811 357.734 346 337" stroke="#6D3610" stroke-width="18" stroke-linecap="round"/>
  <path d="M126 108C134.085 101.727 144.221 98 155.229 98H356.771C367.779 98 377.915 101.727 386 108" stroke="#8B5408" stroke-width="14" stroke-linecap="round" opacity="0.65"/>
  <path d="M129 54C150 39.3333 175.167 32 204.5 32H307.5C336.833 32 362 39.3333 383 54" stroke="#FFF4D2" stroke-width="12" stroke-linecap="round" opacity="0.65"/>
  <path d="M98 166C113.333 160.667 132.333 158 155 158H357C379.667 158 398.667 160.667 414 166" stroke="#8B5408" stroke-width="12" stroke-linecap="round" opacity="0.55"/>
  <ellipse cx="204" cy="189" rx="115" ry="92" fill="url(#shine)" opacity="0.35"/>
</svg>
